<?xml version="1.0" standalone="no"?>
<!DOCTYPE svg PUBLIC "-//W3C//DTD SVG 20010904//EN"
 "http://www.w3.org/TR/2001/REC-SVG-20010904/DTD/svg10.dtd">
<svg version="1.0" xmlns="http://www.w3.org/2000/svg"
 width="113.000000pt" height="97.000000pt" viewBox="0 0 113.000000 97.000000"
 preserveAspectRatio="xMidYMid meet">

<g transform="translate(0.000000,97.000000) scale(0.100000,-0.100000)"
fill="#000000" stroke="none">
<path d="M0 485 l0 -485 565 0 565 0 0 485 0 485 -565 0 -565 0 0 -485z m677
309 c193 -116 178 -89 178 -314 0 -189 0 -190 -25 -213 -45 -44 -279 -177
-310 -177 -29 0 -272 140 -315 181 -19 18 -20 33 -20 209 0 179 1 191 21 210
42 43 278 178 311 179 23 1 68 -21 160 -75z"/>
<path d="M590 807 c0 -3 45 -33 100 -66 54 -34 106 -71 115 -83 12 -18 15 -53
15 -170 0 -80 -4 -158 -9 -171 -7 -17 -53 -51 -142 -106 -73 -45 -140 -81
-149 -81 -12 0 -272 149 -289 166 -3 3 -8 69 -12 147 l-5 142 -2 -138 c-2
-131 -1 -139 21 -160 27 -28 270 -177 287 -177 14 0 273 154 295 176 12 13 15
46 15 185 0 94 -4 179 -10 189 -5 10 -49 42 -97 71 -49 29 -98 59 -110 67 -13
8 -23 12 -23 9z"/>
<path d="M535 712 c-28 -15 -51 -30 -53 -34 -2 -5 -8 -8 -13 -8 -5 0 -37 -17
-72 -37 -34 -21 -79 -47 -100 -58 l-37 -20 0 -95 c0 -52 3 -104 6 -116 8 -29
214 -154 254 -154 35 0 244 120 254 145 3 9 6 75 6 147 l0 130 -29 26 c-16 15
-60 44 -98 64 l-68 37 -50 -27z m-97 -148 c25 -18 30 -64 7 -64 -9 0 -18 7
-21 15 -4 8 -12 15 -20 15 -10 0 -14 -14 -14 -50 0 -36 4 -50 14 -50 8 0 16 7
20 15 3 8 13 15 21 15 12 0 15 -8 13 -27 -4 -35 -42 -57 -72 -41 -32 17 -36
28 -36 95 0 53 3 64 22 77 12 9 27 16 33 16 6 0 21 -7 33 -16z m157 -24 c4 0
15 10 26 23 l19 22 6 -22 c3 -11 14 -23 25 -26 25 -7 24 -27 -1 -34 -11 -3
-20 -13 -20 -23 0 -10 9 -20 20 -23 25 -7 26 -27 1 -34 -11 -3 -22 -15 -25
-26 l-6 -22 -19 23 c-11 12 -22 22 -26 22 -4 0 -15 -10 -26 -22 l-19 -23 -6
22 c-3 11 -14 23 -25 26 -25 7 -24 27 1 34 11 3 20 13 20 23 0 10 -9 20 -20
23 -25 7 -26 27 -1 34 11 3 22 15 25 26 l6 22 19 -22 c11 -13 22 -23 26 -23z"/>
<path d="M580 480 c0 -11 7 -20 15 -20 8 0 15 9 15 20 0 11 -7 20 -15 20 -8 0
-15 -9 -15 -20z"/>
</g>
</svg>
